# xmcd CD database file
#
# Track frame offsets:
#	150
#	13289
#	25004
#	39159
#	54255
#	71405
#	81552
#	98558
#	112894
#	136683
#	149824
#	163361
#	179549
#
# Disc length: 2692 seconds
#
# Revision: 0
# Processed by: cddbd v1.5.2PL0 Copyright (c) Steve Scherf et al.
# Submitted via: CDex 1.51
#
DISCID=ad0a820d
DTITLE=Daltons - 13
DYEAR=1900
DGENRE=Country
TTITLE0=Ramblin man
TTITLE1=I can see clearly now
TTITLE2=San Francisco
TTITLE3=Rock n rollis king
TTITLE4=Susie Q
TTITLE5=All shook up
TTITLE6=One Silver Dollar
TTITLE7=Ring of fire
TTITLE8=Harvest moon
TTITLE9=Only the lonely
TTITLE10=Stuck in the middle with you
TTITLE11=Bring it on home to me
TTITLE12=Jailbreak
EXTD=
EXTT0=
EXTT1=
EXTT2=
EXTT3=
EXTT4=
EXTT5=
EXTT6=
EXTT7=
EXTT8=
EXTT9=
EXTT10=
EXTT11=
EXTT12=
PLAYORDER=
